<svg id="DPD_Black" data-name="DPD Black" xmlns="http://www.w3.org/2000/svg" xmlns:xlink="http://www.w3.org/1999/xlink" viewBox="0 0 93.42 40.9"><defs><style>.cls-1{fill:#414042;}.cls-2{fill:url(#Unbenannter_Verlauf);}</style><linearGradient id="Unbenannter_Verlauf" x1="17.72" y1="525.74" x2="35.49" y2="540.65" gradientTransform="matrix(1, 0, 0, -1, 0, 578)" gradientUnits="userSpaceOnUse"><stop offset="0" stop-color="#a90034"/><stop offset="1" stop-color="#dc0032"/></linearGradient></defs><title>DPD_logo_redgrad_rgb_76px-01_v2</title><path class="cls-1" d="M78.19,47.63a25.17,25.17,0,0,1-6.06.7c-5.12,0-8.52-2.73-8.52-7.72,0-4.73,3.16-7.79,7.79-7.79a6.81,6.81,0,0,1,2.8.47V26.43h4Zm-4-10.81a5.76,5.76,0,0,0-2.46-.47,3.8,3.8,0,0,0-4.06,4.13c0,2.83,1.76,4.43,4.59,4.43a11,11,0,0,0,1.94-.17V36.82ZM111,47.63a25.14,25.14,0,0,1-6,.7c-5.13,0-8.53-2.73-8.53-7.72a7.36,7.36,0,0,1,7.79-7.79,6.84,6.84,0,0,1,2.8.47V26.43h4v21.2Zm-4-10.81a5.83,5.83,0,0,0-2.46-.47,3.8,3.8,0,0,0-4.06,4.13c0,2.83,1.76,4.43,4.59,4.43a10.81,10.81,0,0,0,1.93-.17V36.82Zm-22.5,0a7.09,7.09,0,0,1,2.39-.36c2.47,0,4.16,1.43,4.16,4,0,3-1.88,4.39-4.39,4.42v3.5h.2c5.16,0,8.26-2.89,8.26-8,0-4.7-3.3-7.46-8.16-7.46a18,18,0,0,0-6.49,1.23V54h4V36.78Z" transform="translate(-17.55 -17.55)"/><path class="cls-2" d="M41.93,35.8a.6.6,0,0,1-.58,0l-1-.56a.61.61,0,0,1-.2-.22h0a.6.6,0,0,1-.1-.3l0-1.1a.62.62,0,0,1,.29-.51l11.42-6.66-16-8.73a1.29,1.29,0,0,0-.64-.15,1.34,1.34,0,0,0-.64.15l-16,8.73,18,10.44a.62.62,0,0,1,.29.5V52.62a.61.61,0,0,1-.3.5l-1,.53a.54.54,0,0,1-.29.07h0a.5.5,0,0,1-.3-.07l-1-.53a.61.61,0,0,1-.3-.5V39a.4.4,0,0,0-.16-.27l-15.82-9.2v18a1.44,1.44,0,0,0,.63,1.11l16.29,9.6a1.28,1.28,0,0,0,.63.15,1.21,1.21,0,0,0,.64-.15L52,48.7a1.44,1.44,0,0,0,.63-1.11v-18Z" transform="translate(-17.55 -17.55)"/></svg>