<?xml version="1.0" encoding="UTF-8" standalone="no"?><!DOCTYPE svg PUBLIC "-//W3C//DTD SVG 1.1//EN" "http://www.w3.org/Graphics/SVG/1.1/DTD/svg11.dtd"><svg width="100%" height="100%" viewBox="0 0 55 53" version="1.1" xmlns="http://www.w3.org/2000/svg" xmlns:xlink="http://www.w3.org/1999/xlink" xml:space="preserve" xmlns:serif="http://www.serif.com/" style="fill-rule:evenodd;clip-rule:evenodd;stroke-linejoin:round;stroke-miterlimit:1.41421;"><g id="Navigation_x5F_Information2_x5F_blackred_x5F_pos_x5F_rgb"><path id="Speedlimit_10_3_" d="M17.249,52.32c-0.128,0 -0.257,-0.024 -0.383,-0.076c-10.157,-4.217 -16.72,-14.047 -16.72,-25.044c0,-14.945 12.159,-27.104 27.104,-27.104c14.945,0 27.104,12.159 27.104,27.104c0,10.998 -6.563,20.828 -16.722,25.044c-0.507,0.21 -1.094,-0.029 -1.307,-0.54c-0.212,-0.511 0.03,-1.096 0.541,-1.308c9.409,-3.904 15.488,-13.009 15.488,-23.196c0,-13.842 -11.261,-25.104 -25.104,-25.104c-13.842,0 -25.104,11.262 -25.104,25.104c0,10.186 6.079,19.291 15.487,23.196c0.51,0.212 0.752,0.797 0.54,1.308c-0.16,0.385 -0.532,0.616 -0.924,0.616Z" style="fill:#414042;fill-rule:nonzero;"/><g id="Information_1_"><rect id="XMLID_1749_" x="26.379" y="20.487" width="1.743" height="20.713" style="fill:#dc0032;fill-rule:nonzero;"/><path id="XMLID_1747_" d="M25.943,14.546c0,-0.501 0.125,-0.851 0.376,-1.049c0.251,-0.198 0.575,-0.297 0.971,-0.297c0.37,0 0.673,0.099 0.911,0.297c0.237,0.198 0.357,0.548 0.357,1.049c0,0.502 -0.119,0.859 -0.357,1.07c-0.238,0.211 -0.541,0.317 -0.911,0.317c-0.396,0 -0.719,-0.105 -0.97,-0.317c-0.251,-0.211 -0.377,-0.568 -0.377,-1.07Z" style="fill:#dc0032;fill-rule:nonzero;"/></g><rect x="-6.75" y="-6.8" width="68" height="68" style="fill:none;"/></g></svg>